<svg xmlns="http://www.w3.org/2000/svg" xmlns:xlink="http://www.w3.org/1999/xlink" version="1.1" x="0px" y="0px" viewBox="0 0 64 80" enable-background="new 0 0 64 64" xml:space="preserve"><g><g><path d="M61,7.537h-3.333V3c0-0.276-0.224-0.5-0.5-0.5H11.333c-0.276,0-0.5,0.224-0.5,0.5v7.032H6.751c-0.276,0-0.5,0.224-0.5,0.5    v6.16H3c-0.276,0-0.5,0.224-0.5,0.5V54.97c0,3.6,2.934,6.529,6.541,6.53c0,0,0,0,0,0h45.917c3.607,0,6.542-2.93,6.542-6.53V8.037    C61.5,7.761,61.276,7.537,61,7.537z M7.251,11.032h3.582V54.62c0,0.985-0.803,1.786-1.791,1.786s-1.791-0.801-1.791-1.786V11.032z     M3.5,54.97V17.692h2.751V54.62c0,1.536,1.252,2.786,2.791,2.786s2.791-1.25,2.791-2.786V3.5h44.833v4.037H15.083    c-0.276,0-0.5,0.224-0.5,0.5V54.97c0,3.049-2.486,5.53-5.542,5.53S3.5,58.019,3.5,54.97z M60.5,54.97    c0,3.049-2.486,5.53-5.542,5.53H12.517c1.84-1.157,3.066-3.203,3.066-5.53V8.537H60.5V54.97z"/><path d="M18.917,11.5c-0.276,0-0.5,0.224-0.5,0.5v4c0,0.276,0.224,0.5,0.5,0.5h38.25c0.276,0,0.5-0.224,0.5-0.5v-4    c0-0.276-0.224-0.5-0.5-0.5H18.917z M56.667,15.5h-37.25v-3h37.25V15.5z"/><path d="M18.917,32.692h19.125c0.276,0,0.5-0.224,0.5-0.5v-12c0-0.276-0.224-0.5-0.5-0.5H18.917c-0.276,0-0.5,0.224-0.5,0.5v12    C18.417,32.469,18.64,32.692,18.917,32.692z M19.417,20.692h18.125v11H19.417V20.692z"/><path d="M57.167,19.692H41.468c-0.276,0-0.5,0.224-0.5,0.5s0.224,0.5,0.5,0.5h15.698c0.276,0,0.5-0.224,0.5-0.5    S57.443,19.692,57.167,19.692z"/><path d="M57.167,22.692H41.468c-0.276,0-0.5,0.224-0.5,0.5s0.224,0.5,0.5,0.5h15.698c0.276,0,0.5-0.224,0.5-0.5    S57.443,22.692,57.167,22.692z"/><path d="M57.167,25.692H41.468c-0.276,0-0.5,0.224-0.5,0.5s0.224,0.5,0.5,0.5h15.698c0.276,0,0.5-0.224,0.5-0.5    S57.443,25.692,57.167,25.692z"/><path d="M57.167,28.692H41.468c-0.276,0-0.5,0.224-0.5,0.5s0.224,0.5,0.5,0.5h15.698c0.276,0,0.5-0.224,0.5-0.5    S57.443,28.692,57.167,28.692z"/><path d="M57.167,31.692H41.468c-0.276,0-0.5,0.224-0.5,0.5s0.224,0.5,0.5,0.5h15.698c0.276,0,0.5-0.224,0.5-0.5    S57.443,31.692,57.167,31.692z"/><path d="M28.479,36.5h-9.563c-0.276,0-0.5,0.224-0.5,0.5s0.224,0.5,0.5,0.5h9.563c0.276,0,0.5-0.224,0.5-0.5    S28.755,36.5,28.479,36.5z"/><path d="M28.479,39.5h-9.563c-0.276,0-0.5,0.224-0.5,0.5s0.224,0.5,0.5,0.5h9.563c0.276,0,0.5-0.224,0.5-0.5    S28.755,39.5,28.479,39.5z"/><path d="M28.479,42.5h-9.563c-0.276,0-0.5,0.224-0.5,0.5s0.224,0.5,0.5,0.5h9.563c0.276,0,0.5-0.224,0.5-0.5    S28.755,42.5,28.479,42.5z"/><path d="M28.479,45.5h-9.563c-0.276,0-0.5,0.224-0.5,0.5s0.224,0.5,0.5,0.5h9.563c0.276,0,0.5-0.224,0.5-0.5    S28.755,45.5,28.479,45.5z"/><path d="M28.479,48.5h-9.563c-0.276,0-0.5,0.224-0.5,0.5s0.224,0.5,0.5,0.5h9.563c0.276,0,0.5-0.224,0.5-0.5    S28.755,48.5,28.479,48.5z"/><path d="M28.479,51.5h-9.563c-0.276,0-0.5,0.224-0.5,0.5s0.224,0.5,0.5,0.5h9.563c0.276,0,0.5-0.224,0.5-0.5    S28.755,51.5,28.479,51.5z"/><path d="M28.479,54.5h-9.563c-0.276,0-0.5,0.224-0.5,0.5s0.224,0.5,0.5,0.5h9.563c0.276,0,0.5-0.224,0.5-0.5    S28.755,54.5,28.479,54.5z"/><path d="M43.859,36.5H32.264c-0.276,0-0.5,0.224-0.5,0.5s0.224,0.5,0.5,0.5h11.595c0.276,0,0.5-0.224,0.5-0.5    S44.135,36.5,43.859,36.5z"/><path d="M43.859,39.5H32.264c-0.276,0-0.5,0.224-0.5,0.5s0.224,0.5,0.5,0.5h11.595c0.276,0,0.5-0.224,0.5-0.5    S44.135,39.5,43.859,39.5z"/><path d="M43.859,42.5H32.264c-0.276,0-0.5,0.224-0.5,0.5s0.224,0.5,0.5,0.5h11.595c0.276,0,0.5-0.224,0.5-0.5    S44.135,42.5,43.859,42.5z"/><path d="M43.859,45.5H32.264c-0.276,0-0.5,0.224-0.5,0.5s0.224,0.5,0.5,0.5h11.595c0.276,0,0.5-0.224,0.5-0.5    S44.135,45.5,43.859,45.5z"/><path d="M43.859,48.5H32.264c-0.276,0-0.5,0.224-0.5,0.5s0.224,0.5,0.5,0.5h11.595c0.276,0,0.5-0.224,0.5-0.5    S44.135,48.5,43.859,48.5z"/><path d="M43.859,51.5H32.264c-0.276,0-0.5,0.224-0.5,0.5s0.224,0.5,0.5,0.5h11.595c0.276,0,0.5-0.224,0.5-0.5    S44.135,51.5,43.859,51.5z"/><path d="M43.859,54.5H32.264c-0.276,0-0.5,0.224-0.5,0.5s0.224,0.5,0.5,0.5h11.595c0.276,0,0.5-0.224,0.5-0.5    S44.135,54.5,43.859,54.5z"/><path d="M57.167,36.5h-9.563c-0.276,0-0.5,0.224-0.5,0.5s0.224,0.5,0.5,0.5h9.563c0.276,0,0.5-0.224,0.5-0.5    S57.443,36.5,57.167,36.5z"/><path d="M57.167,39.5h-9.563c-0.276,0-0.5,0.224-0.5,0.5s0.224,0.5,0.5,0.5h9.563c0.276,0,0.5-0.224,0.5-0.5    S57.443,39.5,57.167,39.5z"/><path d="M57.167,42.5h-9.563c-0.276,0-0.5,0.224-0.5,0.5s0.224,0.5,0.5,0.5h9.563c0.276,0,0.5-0.224,0.5-0.5    S57.443,42.5,57.167,42.5z"/><path d="M57.167,45.5h-9.563c-0.276,0-0.5,0.224-0.5,0.5s0.224,0.5,0.5,0.5h9.563c0.276,0,0.5-0.224,0.5-0.5    S57.443,45.5,57.167,45.5z"/><path d="M57.167,48.5h-9.563c-0.276,0-0.5,0.224-0.5,0.5s0.224,0.5,0.5,0.5h9.563c0.276,0,0.5-0.224,0.5-0.5    S57.443,48.5,57.167,48.5z"/><path d="M57.167,51.5h-9.563c-0.276,0-0.5,0.224-0.5,0.5s0.224,0.5,0.5,0.5h9.563c0.276,0,0.5-0.224,0.5-0.5    S57.443,51.5,57.167,51.5z"/><path d="M57.167,54.5h-9.563c-0.276,0-0.5,0.224-0.5,0.5s0.224,0.5,0.5,0.5h9.563c0.276,0,0.5-0.224,0.5-0.5    S57.443,54.5,57.167,54.5z"/></g></g><text x="0" y="79" fill="#000000" font-size="5px" font-weight="bold" font-family="'Helvetica Neue', Helvetica, Arial-Unicode, Arial, Sans-serif">Created by Dennis</text><text x="0" y="84" fill="#000000" font-size="5px" font-weight="bold" font-family="'Helvetica Neue', Helvetica, Arial-Unicode, Arial, Sans-serif">from the Noun Project</text></svg>